<svg width="295" height="157" viewBox="0 0 295 157" fill="none" xmlns="http://www.w3.org/2000/svg">
<path d="M125.683 91.1263C124.266 91.1263 123.007 90.8741 121.907 90.3695C120.826 89.8649 119.978 89.0707 119.363 87.9868C118.766 86.8843 118.468 85.436 118.468 83.642V73.9713C118.468 73.2612 118.104 72.794 117.377 72.5697L116.762 72.4016V72.1212H124.508V72.4016L123.697 72.6258C123.007 72.794 122.662 73.2612 122.662 74.0274V84.3708C122.662 86.1088 123.026 87.3982 123.753 88.2391C124.48 89.0614 125.524 89.4725 126.885 89.4725C128.302 89.4725 129.42 89.0333 130.241 88.155C131.08 87.2767 131.499 86.034 131.499 84.4269V74.1395C131.499 73.7657 131.434 73.4387 131.303 73.1584C131.191 72.8594 130.949 72.6632 130.576 72.5697L129.877 72.4016V72.1212H133.792V72.4016L133.037 72.5978C132.683 72.6725 132.45 72.8501 132.338 73.1304C132.226 73.4107 132.17 73.7377 132.17 74.1115V84.3708C132.17 85.735 131.9 86.931 131.359 87.9588C130.819 88.9679 130.064 89.7528 129.094 90.3134C128.125 90.8554 126.988 91.1263 125.683 91.1263Z" fill="#0E0E0E"/>
<path d="M134.076 90.6218V90.3415L134.467 90.2293C135.12 90.0425 135.446 89.5846 135.446 88.8558V80.0821C135.446 79.671 135.381 79.372 135.25 79.1851C135.12 78.9795 134.868 78.8394 134.495 78.7646L134.076 78.6525V78.3722L138.857 76.7464L139.137 77.0267L139.361 78.7086C140.013 78.1292 140.75 77.6527 141.57 77.279C142.39 76.9052 143.201 76.7183 144.003 76.7183C145.233 76.7183 146.175 77.0547 146.827 77.7275C147.498 78.4002 147.834 79.428 147.834 80.8109V88.8838C147.834 89.6126 148.188 90.0705 148.897 90.2574L149.148 90.3415V90.6218H142.549V90.3415L142.912 90.2293C143.565 90.0238 143.891 89.5659 143.891 88.8558V79.9139C143.891 78.7179 143.294 78.1199 142.101 78.1199C141.281 78.1199 140.386 78.531 139.417 79.3533V88.8838C139.417 89.6126 139.743 90.0705 140.395 90.2574L140.647 90.3415V90.6218H134.076Z" fill="#0E0E0E"/>
<path d="M153.598 75.2607C152.964 75.2607 152.423 75.0645 151.976 74.6721C151.547 74.261 151.333 73.747 151.333 73.1304C151.333 72.495 151.547 71.9811 151.976 71.5887C152.423 71.1962 152.964 71 153.598 71C154.232 71 154.763 71.1962 155.192 71.5887C155.621 71.9811 155.835 72.495 155.835 73.1304C155.835 73.747 155.621 74.261 155.192 74.6721C154.763 75.0645 154.232 75.2607 153.598 75.2607ZM150.298 90.6218V90.3415L150.69 90.2293C151.063 90.1172 151.314 89.949 151.445 89.7248C151.594 89.5005 151.668 89.2015 151.668 88.8278V80.054C151.668 79.6616 151.594 79.372 151.445 79.1851C151.314 78.9795 151.063 78.8394 150.69 78.7646L150.298 78.6805V78.4002L155.416 76.7464L155.695 77.0267L155.611 81.0071V88.8558C155.611 89.2296 155.677 89.5286 155.807 89.7528C155.956 89.9771 156.208 90.1452 156.562 90.2574L156.842 90.3415V90.6218H150.298Z" fill="#0E0E0E"/>
<path d="M165.015 91.0422C163.747 91.0422 162.591 90.7713 161.547 90.2293C160.522 89.6687 159.702 88.8652 159.087 87.8187C158.49 86.7535 158.192 85.4547 158.192 83.9223C158.192 82.4087 158.518 81.1192 159.17 80.054C159.842 78.9702 160.727 78.1479 161.827 77.5873C162.946 77.008 164.167 76.7183 165.49 76.7183C166.572 76.7183 167.485 76.8959 168.231 77.2509C168.976 77.606 169.545 78.0732 169.937 78.6525C170.328 79.2131 170.524 79.8018 170.524 80.4185C170.524 80.9417 170.365 81.3528 170.048 81.6518C169.731 81.9321 169.321 82.0723 168.818 82.0723C168.277 82.0723 167.839 81.8761 167.504 81.4836C167.168 81.0912 166.972 80.5773 166.916 79.9419C166.898 79.5308 166.907 79.1851 166.944 78.9048C166.982 78.6058 166.982 78.3068 166.944 78.0078C166.87 77.6901 166.749 77.4845 166.581 77.3911C166.432 77.279 166.217 77.2229 165.938 77.2229C164.8 77.2229 163.915 77.7181 163.281 78.7086C162.666 79.699 162.358 81.2781 162.358 83.4458C162.358 85.3332 162.703 86.7815 163.393 87.7906C164.101 88.7811 165.183 89.2763 166.637 89.2763C167.513 89.2763 168.221 89.1174 168.762 88.7997C169.303 88.4821 169.825 88.0055 170.328 87.3702L170.608 87.5944C170.142 88.697 169.424 89.5472 168.454 90.1452C167.485 90.7432 166.338 91.0422 165.015 91.0422Z" fill="#0E0E0E"/>
<path d="M178.809 91.0422C177.392 91.0422 176.162 90.7526 175.118 90.1733C174.074 89.5753 173.263 88.7343 172.685 87.6505C172.126 86.5666 171.846 85.2959 171.846 83.8382C171.846 82.3806 172.144 81.1192 172.741 80.054C173.356 78.9889 174.186 78.1666 175.23 77.5873C176.292 77.008 177.485 76.7183 178.809 76.7183C180.133 76.7183 181.316 77.008 182.36 77.5873C183.404 78.1479 184.225 78.9608 184.821 80.026C185.436 81.0912 185.744 82.3619 185.744 83.8382C185.744 85.3145 185.455 86.5946 184.877 87.6785C184.318 88.7437 183.516 89.5753 182.472 90.1733C181.447 90.7526 180.226 91.0422 178.809 91.0422ZM178.809 90.4816C179.461 90.4816 179.983 90.2947 180.375 89.921C180.766 89.5472 181.046 88.8838 181.214 87.9308C181.4 86.9777 181.493 85.6322 181.493 83.8943C181.493 82.1377 181.4 80.7829 181.214 79.8298C181.046 78.8767 180.766 78.2133 180.375 77.8396C179.983 77.4658 179.461 77.279 178.809 77.279C178.156 77.279 177.625 77.4658 177.215 77.8396C176.823 78.2133 176.535 78.8767 176.348 79.8298C176.18 80.7829 176.096 82.1377 176.096 83.8943C176.096 85.6322 176.18 86.9777 176.348 87.9308C176.535 88.8838 176.823 89.5472 177.215 89.921C177.625 90.2947 178.156 90.4816 178.809 90.4816Z" fill="#0E0E0E"/>
<path d="M186.972 90.6218V90.3415L187.392 90.2293C187.765 90.1172 188.016 89.949 188.147 89.7248C188.296 89.5005 188.37 89.2109 188.37 88.8558V80.0821C188.37 79.671 188.296 79.372 188.147 79.1851C188.016 78.9795 187.765 78.8394 187.392 78.7646L186.972 78.6525V78.3722L191.782 76.7464L192.062 77.0267L192.313 79.4374V79.6616C192.574 79.1384 192.91 78.6618 193.32 78.232C193.749 77.7835 194.215 77.4191 194.718 77.1388C195.24 76.8585 195.753 76.7183 196.256 76.7183C196.965 76.7183 197.505 76.9146 197.878 77.307C198.251 77.6994 198.437 78.1946 198.437 78.7926C198.437 79.428 198.251 79.9232 197.878 80.2783C197.524 80.6147 197.095 80.7829 196.592 80.7829C195.809 80.7829 195.119 80.3904 194.522 79.6055L194.467 79.5495C194.28 79.2879 194.066 79.1477 193.823 79.129C193.581 79.0916 193.357 79.2038 193.152 79.4654C192.966 79.6336 192.807 79.8391 192.677 80.0821C192.565 80.3063 192.453 80.5679 192.341 80.8669V88.6876C192.341 89.4351 192.668 89.9023 193.32 90.0892L194.215 90.3415V90.6218H186.972Z" fill="#0E0E0E"/>
<path d="M199.316 90.6218V90.3415L199.707 90.2293C200.36 90.0425 200.686 89.5846 200.686 88.8558V80.0821C200.686 79.671 200.621 79.372 200.49 79.1851C200.36 78.9795 200.108 78.8394 199.735 78.7646L199.316 78.6525V78.3722L204.097 76.7464L204.377 77.0267L204.601 78.7086C205.253 78.1292 205.99 77.6527 206.81 77.279C207.63 76.9052 208.441 76.7183 209.243 76.7183C210.473 76.7183 211.415 77.0547 212.067 77.7275C212.738 78.4002 213.074 79.428 213.074 80.8109V88.8838C213.074 89.6126 213.428 90.0705 214.136 90.2574L214.388 90.3415V90.6218H207.789V90.3415L208.152 90.2293C208.805 90.0238 209.131 89.5659 209.131 88.8558V79.9139C209.131 78.7179 208.534 78.1199 207.341 78.1199C206.521 78.1199 205.626 78.531 204.657 79.3533V88.8838C204.657 89.6126 204.983 90.0705 205.635 90.2574L205.887 90.3415V90.6218H199.316Z" fill="#0E0E0E"/>
<path d="M122.802 118.613L117.853 101.934C117.722 101.505 117.582 101.196 117.433 101.009C117.284 100.804 117.023 100.617 116.65 100.449L116.315 100.309V100.028H123.725V100.309L123.138 100.533C122.709 100.701 122.42 100.907 122.271 101.15C122.122 101.392 122.112 101.729 122.243 102.159L125.291 113.82L128.591 104.037L127.948 102.047C127.817 101.654 127.696 101.355 127.584 101.15C127.472 100.944 127.286 100.776 127.025 100.645L126.41 100.309V100.028H133.429V100.309L132.562 100.645C132.189 100.776 131.974 100.972 131.918 101.234C131.881 101.477 131.928 101.794 132.058 102.187L135.61 114.1L138.965 102.411C139.096 101.962 139.142 101.57 139.105 101.234C139.068 100.897 138.835 100.654 138.406 100.505L137.819 100.309V100.028H141.706V100.309L140.979 100.589C140.606 100.72 140.345 100.925 140.196 101.206C140.047 101.486 139.916 101.832 139.804 102.243L135.162 118.613H133.233L129.038 105.438L124.732 118.613H122.802Z" fill="#0E0E0E"/>
<path d="M144.996 103.168C144.362 103.168 143.821 102.972 143.374 102.579C142.945 102.168 142.731 101.654 142.731 101.037C142.731 100.402 142.945 99.8882 143.374 99.4957C143.821 99.1033 144.362 98.9071 144.996 98.9071C145.63 98.9071 146.161 99.1033 146.59 99.4957C147.018 99.8882 147.233 100.402 147.233 101.037C147.233 101.654 147.018 102.168 146.59 102.579C146.161 102.972 145.63 103.168 144.996 103.168ZM141.696 118.529V118.249L142.088 118.136C142.46 118.024 142.712 117.856 142.843 117.632C142.992 117.408 143.066 117.109 143.066 116.735V107.961C143.066 107.569 142.992 107.279 142.843 107.092C142.712 106.887 142.46 106.746 142.088 106.672L141.696 106.588V106.307L146.813 104.653L147.093 104.934L147.009 108.914V116.763C147.009 117.137 147.074 117.436 147.205 117.66C147.354 117.884 147.606 118.052 147.96 118.164L148.24 118.249V118.529H141.696Z" fill="#0E0E0E"/>
<path d="M154.791 118.949C153.598 118.949 152.666 118.65 151.994 118.052C151.342 117.454 151.016 116.501 151.016 115.193V105.607H149.086V105.326L149.757 105.214C150.335 105.083 150.829 104.896 151.239 104.653C151.668 104.411 152.088 104.083 152.498 103.672L154.791 101.122H155.07L154.987 105.046H158.118V105.607H154.959V115.698C154.959 116.352 155.098 116.847 155.378 117.183C155.676 117.52 156.049 117.688 156.497 117.688C156.888 117.688 157.233 117.594 157.531 117.408C157.83 117.202 158.128 116.931 158.426 116.595L158.706 116.875C158.333 117.51 157.82 118.015 157.168 118.389C156.515 118.762 155.723 118.949 154.791 118.949Z" fill="#0E0E0E"/>
<path d="M159.582 118.529V118.249L159.973 118.136C160.626 117.95 160.952 117.492 160.952 116.763V107.989C160.952 107.578 160.887 107.279 160.756 107.092C160.626 106.887 160.374 106.746 160.001 106.672L159.582 106.56V106.279L164.364 104.653L164.643 104.934L164.867 106.616C165.519 106.036 166.256 105.56 167.076 105.186C167.896 104.812 168.707 104.625 169.509 104.625C170.739 104.625 171.681 104.962 172.333 105.635C173.004 106.307 173.34 107.335 173.34 108.718V116.791C173.34 117.52 173.694 117.978 174.403 118.164L174.654 118.249V118.529H168.055V118.249L168.418 118.136C169.071 117.931 169.397 117.473 169.397 116.763V107.821C169.397 106.625 168.801 106.027 167.607 106.027C166.787 106.027 165.892 106.438 164.923 107.26V116.791C164.923 117.52 165.249 117.978 165.902 118.164L166.153 118.249V118.529H159.582Z" fill="#0E0E0E"/>
<path d="M182.767 104.625C183.979 104.625 185.014 104.878 185.871 105.382C186.729 105.868 187.381 106.541 187.829 107.4C188.295 108.241 188.528 109.204 188.528 110.288C188.528 110.493 188.519 110.708 188.5 110.932C188.481 111.138 188.444 111.325 188.388 111.493H180.055C180.073 113.511 180.428 114.969 181.117 115.866C181.826 116.744 182.87 117.183 184.249 117.183C185.182 117.183 185.937 117.034 186.515 116.735C187.092 116.436 187.633 115.997 188.136 115.417L188.416 115.67C187.838 116.697 187.064 117.501 186.095 118.08C185.144 118.66 183.998 118.949 182.655 118.949C181.332 118.949 180.157 118.669 179.132 118.108C178.107 117.529 177.305 116.707 176.727 115.642C176.149 114.576 175.86 113.306 175.86 111.829C175.86 110.297 176.196 108.998 176.867 107.933C177.538 106.849 178.396 106.027 179.44 105.466C180.502 104.906 181.612 104.625 182.767 104.625ZM182.683 105.186C182.143 105.186 181.677 105.354 181.285 105.691C180.912 106.008 180.614 106.588 180.39 107.429C180.185 108.251 180.073 109.419 180.055 110.932H184.837C185.023 108.895 184.949 107.429 184.613 106.532C184.277 105.635 183.634 105.186 182.683 105.186Z" fill="#0E0E0E"/>
<path d="M194.759 118.949C193.846 118.949 193.026 118.837 192.298 118.613C191.571 118.407 190.9 118.146 190.285 117.828L190.313 114.492H190.593L191.543 116.174C191.954 116.922 192.401 117.482 192.886 117.856C193.389 118.211 194.023 118.389 194.787 118.389C195.682 118.389 196.4 118.192 196.94 117.8C197.5 117.389 197.779 116.847 197.779 116.174C197.779 115.558 197.584 115.053 197.192 114.661C196.801 114.268 196.074 113.913 195.011 113.595L193.836 113.231C192.699 112.895 191.804 112.371 191.152 111.661C190.499 110.951 190.173 110.082 190.173 109.054C190.173 107.821 190.658 106.774 191.627 105.915C192.597 105.055 193.986 104.625 195.794 104.625C196.521 104.625 197.201 104.71 197.835 104.878C198.488 105.027 199.112 105.261 199.709 105.578L199.541 108.606H199.261L198.283 106.868C197.929 106.251 197.574 105.821 197.22 105.578C196.885 105.317 196.372 105.186 195.682 105.186C195.048 105.186 194.452 105.364 193.892 105.719C193.333 106.074 193.053 106.578 193.053 107.232C193.053 107.868 193.286 108.372 193.753 108.746C194.237 109.12 194.946 109.465 195.878 109.783L197.136 110.148C198.478 110.559 199.439 111.129 200.016 111.857C200.594 112.568 200.883 113.427 200.883 114.436C200.883 115.8 200.343 116.894 199.261 117.716C198.199 118.538 196.698 118.949 194.759 118.949Z" fill="#0E0E0E"/>
<path d="M206.939 118.949C206.025 118.949 205.205 118.837 204.478 118.613C203.751 118.407 203.08 118.146 202.465 117.828L202.493 114.492H202.772L203.723 116.174C204.133 116.922 204.581 117.482 205.065 117.856C205.569 118.211 206.202 118.389 206.967 118.389C207.862 118.389 208.579 118.192 209.12 117.8C209.679 117.389 209.959 116.847 209.959 116.174C209.959 115.558 209.763 115.053 209.372 114.661C208.98 114.268 208.253 113.913 207.191 113.595L206.016 113.231C204.879 112.895 203.984 112.371 203.332 111.661C202.679 110.951 202.353 110.082 202.353 109.054C202.353 107.821 202.837 106.774 203.807 105.915C204.776 105.055 206.165 104.625 207.974 104.625C208.701 104.625 209.381 104.71 210.015 104.878C210.667 105.027 211.292 105.261 211.888 105.578L211.721 108.606H211.441L210.462 106.868C210.108 106.251 209.754 105.821 209.4 105.578C209.064 105.317 208.551 105.186 207.862 105.186C207.228 105.186 206.631 105.364 206.072 105.719C205.513 106.074 205.233 106.578 205.233 107.232C205.233 107.868 205.466 108.372 205.932 108.746C206.417 109.12 207.125 109.465 208.057 109.783L209.316 110.148C210.658 110.559 211.618 111.129 212.196 111.857C212.774 112.568 213.063 113.427 213.063 114.436C213.063 115.8 212.522 116.894 211.441 117.716C210.378 118.538 208.878 118.949 206.939 118.949Z" fill="#0E0E0E"/>
<path d="M221.3 104.625C222.511 104.625 223.546 104.878 224.404 105.382C225.261 105.868 225.914 106.541 226.361 107.4C226.827 108.241 227.06 109.204 227.06 110.288C227.06 110.493 227.051 110.708 227.032 110.932C227.014 111.138 226.976 111.325 226.92 111.493H218.587C218.606 113.511 218.96 114.969 219.65 115.866C220.358 116.744 221.402 117.183 222.782 117.183C223.714 117.183 224.469 117.034 225.047 116.735C225.625 116.436 226.165 115.997 226.669 115.417L226.948 115.67C226.37 116.697 225.597 117.501 224.627 118.08C223.677 118.66 222.53 118.949 221.188 118.949C219.864 118.949 218.69 118.669 217.664 118.108C216.639 117.529 215.837 116.707 215.259 115.642C214.682 114.576 214.393 113.306 214.393 111.829C214.393 110.297 214.728 108.998 215.399 107.933C216.07 106.849 216.928 106.027 217.972 105.466C219.035 104.906 220.144 104.625 221.3 104.625ZM221.216 105.186C220.675 105.186 220.209 105.354 219.818 105.691C219.445 106.008 219.146 106.588 218.923 107.429C218.718 108.251 218.606 109.419 218.587 110.932H223.369C223.555 108.895 223.481 107.429 223.145 106.532C222.81 105.635 222.167 105.186 221.216 105.186Z" fill="#0E0E0E"/>
<path d="M233.292 118.949C232.378 118.949 231.558 118.837 230.831 118.613C230.104 118.407 229.433 118.146 228.817 117.828L228.845 114.492H229.125L230.076 116.174C230.486 116.922 230.933 117.482 231.418 117.856C231.921 118.211 232.555 118.389 233.32 118.389C234.214 118.389 234.932 118.192 235.473 117.8C236.032 117.389 236.312 116.847 236.312 116.174C236.312 115.558 236.116 115.053 235.724 114.661C235.333 114.268 234.606 113.913 233.543 113.595L232.369 113.231C231.232 112.895 230.337 112.371 229.684 111.661C229.032 110.951 228.705 110.082 228.705 109.054C228.705 107.821 229.19 106.774 230.16 105.915C231.129 105.055 232.518 104.625 234.326 104.625C235.053 104.625 235.734 104.71 236.368 104.878C237.02 105.027 237.645 105.261 238.241 105.578L238.073 108.606H237.794L236.815 106.868C236.461 106.251 236.107 105.821 235.752 105.578C235.417 105.317 234.904 105.186 234.214 105.186C233.581 105.186 232.984 105.364 232.425 105.719C231.865 106.074 231.586 106.578 231.586 107.232C231.586 107.868 231.819 108.372 232.285 108.746C232.77 109.12 233.478 109.465 234.41 109.783L235.668 110.148C237.011 110.559 237.971 111.129 238.549 111.857C239.127 112.568 239.416 113.427 239.416 114.436C239.416 115.8 238.875 116.894 237.794 117.716C236.731 118.538 235.23 118.949 233.292 118.949Z" fill="#0E0E0E"/>
<mask id="mask0_1172_973" style="mask-type:alpha" maskUnits="userSpaceOnUse" x="52" y="25" width="87" height="102">
<path d="M138.083 25L52 104.534C54.923 116.837 69.4517 128.566 82.605 126.828L138.083 25Z" fill="#683DC4"/>
</mask>
<g mask="url(#mask0_1172_973)">
<path d="M138.083 25L52 104.534C54.923 116.837 69.4517 128.566 82.605 126.828L138.083 25Z" fill="#683DC4"/>
<path d="M138.083 25L52 104.534C54.923 116.837 69.4517 128.566 82.605 126.828L138.083 25Z" fill="url(#paint0_linear_1172_973)"/>
<g filter="url(#filter0_ddiiii_1172_973)">
<path d="M107.4 89.5126C107.4 98.7892 99.9587 106.309 90.7798 106.309C81.6008 106.309 74.1599 98.7892 74.1599 89.5126C74.1599 80.236 81.6008 72.7158 90.7798 72.7158C99.9587 72.7158 107.4 80.236 107.4 89.5126Z" fill="white"/>
</g>
<g filter="url(#filter1_di_1172_973)">
<path d="M95.8937 85.4213C95.8937 90.0597 92.1732 93.8197 87.5837 93.8197C82.9942 93.8197 79.2737 90.0597 79.2737 85.4213C79.2737 80.783 82.9942 77.0229 87.5837 77.0229C92.1732 77.0229 95.8937 80.783 95.8937 85.4213Z" fill="#362F24"/>
<path d="M95.8937 85.4213C95.8937 90.0597 92.1732 93.8197 87.5837 93.8197C82.9942 93.8197 79.2737 90.0597 79.2737 85.4213C79.2737 80.783 82.9942 77.0229 87.5837 77.0229C92.1732 77.0229 95.8937 80.783 95.8937 85.4213Z" fill="url(#paint1_linear_1172_973)"/>
</g>
<path d="M91.6317 85.4214C91.6317 87.919 89.6283 89.9436 87.1571 89.9436C84.6858 89.9436 82.6825 87.919 82.6825 85.4214C82.6825 82.9238 84.6858 80.8992 87.1571 80.8992C89.6283 80.8992 91.6317 82.9238 91.6317 85.4214Z" fill="black"/>
<path d="M86.5183 82.4064C86.5183 83.7146 85.5643 84.7752 84.3875 84.7752C83.2107 84.7752 82.2568 83.7146 82.2568 82.4064C82.2568 81.0981 83.2107 80.0376 84.3875 80.0376C85.5643 80.0376 86.5183 81.0981 86.5183 82.4064Z" fill="white"/>
</g>
<path d="M124.112 61.0176C124.112 61.6621 123.88 62.1699 123.414 62.541C122.952 62.9121 122.307 63.0977 121.48 63.0977C120.719 63.0977 120.045 62.9544 119.459 62.668V61.2617C119.941 61.4766 120.348 61.6279 120.68 61.7158C121.015 61.8037 121.321 61.8477 121.598 61.8477C121.93 61.8477 122.184 61.7842 122.359 61.6572C122.538 61.5303 122.628 61.3415 122.628 61.0908C122.628 60.9508 122.589 60.8271 122.511 60.7197C122.433 60.609 122.317 60.5033 122.164 60.4023C122.014 60.3014 121.707 60.1403 121.241 59.9189C120.805 59.7139 120.478 59.5169 120.26 59.3281C120.042 59.1393 119.868 58.9196 119.737 58.6689C119.607 58.4183 119.542 58.1253 119.542 57.79C119.542 57.1585 119.755 56.6621 120.182 56.3008C120.611 55.9395 121.204 55.7588 121.959 55.7588C122.33 55.7588 122.683 55.8027 123.019 55.8906C123.357 55.9785 123.71 56.1022 124.078 56.2617L123.59 57.4385C123.209 57.2822 122.893 57.1732 122.643 57.1113C122.395 57.0495 122.151 57.0186 121.91 57.0186C121.624 57.0186 121.404 57.0853 121.251 57.2188C121.098 57.3522 121.021 57.5264 121.021 57.7412C121.021 57.8747 121.052 57.9919 121.114 58.0928C121.176 58.1904 121.274 58.2865 121.407 58.3809C121.544 58.472 121.865 58.638 122.369 58.8789C123.036 59.1979 123.494 59.5186 123.741 59.8408C123.989 60.1598 124.112 60.5521 124.112 61.0176ZM131.817 55.8613V60.4805C131.817 61.0078 131.698 61.4701 131.46 61.8672C131.226 62.2643 130.886 62.5687 130.44 62.7803C129.994 62.9919 129.467 63.0977 128.858 63.0977C127.94 63.0977 127.227 62.8633 126.719 62.3945C126.211 61.9225 125.957 61.278 125.957 60.4609V55.8613H127.466V60.2314C127.466 60.7816 127.577 61.1852 127.798 61.4424C128.02 61.6995 128.386 61.8281 128.897 61.8281C129.392 61.8281 129.75 61.6995 129.971 61.4424C130.196 61.182 130.308 60.7751 130.308 60.2217V55.8613H131.817ZM135.679 59.2207H136.177C136.642 59.2207 136.99 59.1296 137.221 58.9473C137.453 58.7617 137.568 58.4932 137.568 58.1416C137.568 57.7868 137.471 57.5247 137.275 57.3555C137.083 57.1862 136.78 57.1016 136.367 57.1016H135.679V59.2207ZM139.096 58.0879C139.096 58.8561 138.856 59.4437 138.374 59.8506C137.895 60.2575 137.213 60.4609 136.328 60.4609H135.679V63H134.165V55.8613H136.445C137.311 55.8613 137.969 56.0485 138.418 56.4229C138.87 56.7939 139.096 57.349 139.096 58.0879ZM142.558 59.2207H143.056C143.521 59.2207 143.87 59.1296 144.101 58.9473C144.332 58.7617 144.447 58.4932 144.447 58.1416C144.447 57.7868 144.35 57.5247 144.154 57.3555C143.962 57.1862 143.66 57.1016 143.246 57.1016H142.558V59.2207ZM145.976 58.0879C145.976 58.8561 145.735 59.4437 145.253 59.8506C144.775 60.2575 144.093 60.4609 143.207 60.4609H142.558V63H141.044V55.8613H143.324C144.19 55.8613 144.848 56.0485 145.297 56.4229C145.75 56.7939 145.976 57.349 145.976 58.0879ZM154.403 59.4209C154.403 60.6025 154.11 61.5107 153.524 62.1455C152.938 62.7803 152.098 63.0977 151.004 63.0977C149.911 63.0977 149.071 62.7803 148.485 62.1455C147.899 61.5107 147.606 60.5993 147.606 59.4111C147.606 58.223 147.899 57.3164 148.485 56.6914C149.074 56.0632 149.917 55.749 151.014 55.749C152.111 55.749 152.949 56.0648 153.529 56.6963C154.112 57.3278 154.403 58.236 154.403 59.4209ZM149.193 59.4209C149.193 60.2184 149.344 60.819 149.647 61.2227C149.95 61.6263 150.402 61.8281 151.004 61.8281C152.212 61.8281 152.816 61.0257 152.816 59.4209C152.816 57.8128 152.215 57.0088 151.014 57.0088C150.412 57.0088 149.958 57.2122 149.652 57.6191C149.346 58.0228 149.193 58.6234 149.193 59.4209ZM157.996 59.0303H158.484C158.963 59.0303 159.316 58.9505 159.544 58.791C159.772 58.6315 159.886 58.3809 159.886 58.0391C159.886 57.7005 159.769 57.4596 159.534 57.3164C159.303 57.1732 158.943 57.1016 158.455 57.1016H157.996V59.0303ZM157.996 60.2607V63H156.482V55.8613H158.562C159.533 55.8613 160.25 56.0387 160.716 56.3936C161.181 56.7451 161.414 57.2806 161.414 58C161.414 58.4199 161.299 58.7943 161.067 59.123C160.836 59.4486 160.509 59.7041 160.086 59.8896L162.186 63H160.506L158.802 60.2607H157.996ZM166.438 63H164.924V57.1211H162.986V55.8613H168.376V57.1211H166.438V63ZM172.746 63H169.499V62.1406L170.368 61.7402V57.1211L169.499 56.7207V55.8613H172.746V56.7207L171.877 57.1211V61.7402L172.746 62.1406V63ZM180.904 63H178.981L175.875 57.5996H175.831C175.893 58.5534 175.924 59.2337 175.924 59.6406V63H174.571V55.8613H176.481L179.581 61.208H179.615C179.567 60.2803 179.542 59.6243 179.542 59.2402V55.8613H180.904V63ZM186.016 58.9912H188.848V62.6924C188.389 62.8421 187.956 62.9463 187.549 63.0049C187.146 63.0667 186.732 63.0977 186.309 63.0977C185.232 63.0977 184.408 62.7819 183.838 62.1504C183.272 61.5156 182.989 60.6058 182.989 59.4209C182.989 58.2686 183.318 57.3701 183.975 56.7256C184.636 56.0811 185.551 55.7588 186.719 55.7588C187.452 55.7588 188.158 55.9053 188.838 56.1982L188.336 57.4092C187.815 57.1488 187.273 57.0186 186.71 57.0186C186.055 57.0186 185.531 57.2383 185.137 57.6777C184.743 58.1172 184.546 58.708 184.546 59.4502C184.546 60.2249 184.704 60.8174 185.02 61.2275C185.339 61.6344 185.801 61.8379 186.407 61.8379C186.723 61.8379 187.043 61.8053 187.369 61.7402V60.251H186.016V58.9912Z" fill="#0E0E0E"/>
<defs>
<filter id="filter0_ddiiii_1172_973" x="50.1599" y="36.7158" width="101.24" height="127.594" filterUnits="userSpaceOnUse" color-interpolation-filters="sRGB">
<feFlood flood-opacity="0" result="BackgroundImageFix"/>
<feColorMatrix in="SourceAlpha" type="matrix" values="0 0 0 0 0 0 0 0 0 0 0 0 0 0 0 0 0 0 127 0" result="hardAlpha"/>
<feOffset dx="30" dy="44"/>
<feGaussianBlur stdDeviation="7"/>
<feColorMatrix type="matrix" values="0 0 0 0 0.460677 0 0 0 0 0.384115 0 0 0 0 0.520833 0 0 0 0.25 0"/>
<feBlend mode="normal" in2="BackgroundImageFix" result="effect1_dropShadow_1172_973"/>
<feColorMatrix in="SourceAlpha" type="matrix" values="0 0 0 0 0 0 0 0 0 0 0 0 0 0 0 0 0 0 127 0" result="hardAlpha"/>
<feOffset dx="10" dy="14"/>
<feGaussianBlur stdDeviation="17"/>
<feColorMatrix type="matrix" values="0 0 0 0 0.114569 0 0 0 0 0.0253472 0 0 0 0 0.304167 0 0 0 0.63 0"/>
<feBlend mode="normal" in2="effect1_dropShadow_1172_973" result="effect2_dropShadow_1172_973"/>
<feBlend mode="normal" in="SourceGraphic" in2="effect2_dropShadow_1172_973" result="shape"/>
<feColorMatrix in="SourceAlpha" type="matrix" values="0 0 0 0 0 0 0 0 0 0 0 0 0 0 0 0 0 0 127 0" result="hardAlpha"/>
<feOffset dx="-24" dy="-36"/>
<feGaussianBlur stdDeviation="32"/>
<feComposite in2="hardAlpha" operator="arithmetic" k2="-1" k3="1"/>
<feColorMatrix type="matrix" values="0 0 0 0 0.145833 0 0 0 0 0.2025 0 0 0 0 0.5 0 0 0 0.07 0"/>
<feBlend mode="normal" in2="shape" result="effect3_innerShadow_1172_973"/>
<feColorMatrix in="SourceAlpha" type="matrix" values="0 0 0 0 0 0 0 0 0 0 0 0 0 0 0 0 0 0 127 0" result="hardAlpha"/>
<feOffset dy="-16"/>
<feGaussianBlur stdDeviation="7"/>
<feComposite in2="hardAlpha" operator="arithmetic" k2="-1" k3="1"/>
<feColorMatrix type="matrix" values="0 0 0 0 0.0546875 0 0 0 0 0.161875 0 0 0 0 0.4375 0 0 0 0.21 0"/>
<feBlend mode="normal" in2="effect3_innerShadow_1172_973" result="effect4_innerShadow_1172_973"/>
<feColorMatrix in="SourceAlpha" type="matrix" values="0 0 0 0 0 0 0 0 0 0 0 0 0 0 0 0 0 0 127 0" result="hardAlpha"/>
<feOffset dx="-20" dy="-16"/>
<feGaussianBlur stdDeviation="7"/>
<feComposite in2="hardAlpha" operator="arithmetic" k2="-1" k3="1"/>
<feColorMatrix type="matrix" values="0 0 0 0 0.680062 0 0 0 0 0.304688 0 0 0 0 0.975 0 0 0 0.15 0"/>
<feBlend mode="normal" in2="effect4_innerShadow_1172_973" result="effect5_innerShadow_1172_973"/>
<feColorMatrix in="SourceAlpha" type="matrix" values="0 0 0 0 0 0 0 0 0 0 0 0 0 0 0 0 0 0 127 0" result="hardAlpha"/>
<feOffset dx="-8" dy="1"/>
<feGaussianBlur stdDeviation="4"/>
<feComposite in2="hardAlpha" operator="arithmetic" k2="-1" k3="1"/>
<feColorMatrix type="matrix" values="0 0 0 0 0.370742 0 0 0 0 0.85 0 0 0 0 0.145208 0 0 0 0.21 0"/>
<feBlend mode="normal" in2="effect5_innerShadow_1172_973" result="effect6_innerShadow_1172_973"/>
</filter>
<filter id="filter1_di_1172_973" x="74.2737" y="71.0229" width="36.6199" height="36.7969" filterUnits="userSpaceOnUse" color-interpolation-filters="sRGB">
<feFlood flood-opacity="0" result="BackgroundImageFix"/>
<feColorMatrix in="SourceAlpha" type="matrix" values="0 0 0 0 0 0 0 0 0 0 0 0 0 0 0 0 0 0 127 0" result="hardAlpha"/>
<feOffset dx="5" dy="4"/>
<feGaussianBlur stdDeviation="5"/>
<feColorMatrix type="matrix" values="0 0 0 0 0 0 0 0 0 0 0 0 0 0 0 0 0 0 0.25 0"/>
<feBlend mode="normal" in2="BackgroundImageFix" result="effect1_dropShadow_1172_973"/>
<feBlend mode="normal" in="SourceGraphic" in2="effect1_dropShadow_1172_973" result="shape"/>
<feColorMatrix in="SourceAlpha" type="matrix" values="0 0 0 0 0 0 0 0 0 0 0 0 0 0 0 0 0 0 127 0" result="hardAlpha"/>
<feOffset dx="5" dy="6"/>
<feGaussianBlur stdDeviation="7"/>
<feComposite in2="hardAlpha" operator="arithmetic" k2="-1" k3="1"/>
<feColorMatrix type="matrix" values="0 0 0 0 0.595833 0 0 0 0 0.536747 0 0 0 0 0.422049 0 0 0 1 0"/>
<feBlend mode="normal" in2="shape" result="effect2_innerShadow_1172_973"/>
</filter>
<linearGradient id="paint0_linear_1172_973" x1="64.9976" y1="120.066" x2="136.763" y2="41.2029" gradientUnits="userSpaceOnUse">
<stop stop-color="#FB47FF"/>
<stop offset="0.140625" stop-color="#7536FC"/>
<stop offset="0.255208" stop-color="#215AEC"/>
<stop offset="0.40625" stop-color="#50F7C8"/>
<stop offset="0.59375" stop-color="#00EB86"/>
<stop offset="0.71875" stop-color="#FEDA00"/>
<stop offset="0.848958" stop-color="#FFC700"/>
<stop offset="1" stop-color="#FF3D00"/>
</linearGradient>
<linearGradient id="paint1_linear_1172_973" x1="93.6821" y1="91.7201" x2="83.6677" y2="82.6146" gradientUnits="userSpaceOnUse">
<stop stop-color="#83765C"/>
<stop offset="1" stop-color="#5F523B" stop-opacity="0"/>
</linearGradient>
</defs>
</svg>
